#N canvas 443 267 600 335 10;
#X obj 107 312 gemwin;
#X msg 107 289 dimen \$1 \$2 \, FSAA 4 \, frame 25 \, create \, 1;
#X msg 107 250 800 600;
#X obj 163 267 s sizeWin;
#X msg 51 295 destroy;
#X text 103 332 gemwin >>> permet de créer la fenêtre (WIN) de graphique
environnement multimedia (GEM);
#X text 229 266 envoi de width et height de la fenêtre;
#X obj 108 209 bng 15 250 50 0 empty empty empty 17 7 0 10 -262144
-1 -1;
#X obj 164 103 tgl 15 0 empty empty empty 17 7 0 10 -262144 -1 -1 0
1;
#X obj 111 142 sel 0 1;
#X connect 1 0 0 0;
#X connect 2 0 1 0;
#X connect 2 0 3 0;
#X connect 4 0 0 0;
#X connect 7 0 2 0;
#X connect 8 0 9 0;
#X connect 9 0 4 0;
#X connect 9 1 2 0;
#X coords 0 -1 1 1 85 60 1 100 100;
