#N canvas 9 23 450 300 10;
#X declare -lib Gem;
#X obj 113 246 gemwin;
#X msg 96 219 destroy;
#X obj 114 133 tgl 15 0 empty empty empty 17 7 0 10 -262144 -1 -1 1
1;
#X obj 96 177 sel 0 1;
#X text 138 133 ON/OFF;
#X obj 147 30 declare -lib Gem;
#X msg 342 144 color 0 0 0;
#X msg 113 199 dimen 800 800 \, FSAA 4 \, frame 2 \, create \, 1;
#X connect 1 0 0 0;
#X connect 2 0 3 0;
#X connect 3 0 1 0;
#X connect 3 1 7 0;
#X connect 6 0 0 0;
#X connect 7 0 0 0;
#X coords 0 -1 1 1 85 60 1 100 100;
