#N canvas 375 73 875 764 10;
#X declare -lib Gem;
#X obj 8 8 a_gemwin;
#N canvas 244 412 558 302 curlimport 0;
#X obj 26 51 getdir;
#X obj 26 26 bng 15 250 50 0 empty empty empty 17 7 0 10 -262144 -1
-1;
#X obj 119 91 prepend set;
#X msg 119 113 ./Applications/puredata/63-annecy-2013/master2/exemple_2/curl.sh
/Applications/puredata/63-annecy-2013/master2/exemple_2;
#X obj 26 173 shell;
#X text 73 173 l'objet shell fonctionne avec linux et OSX \, pour windows
utiliser popen \, mais en bref là \, sur ces exemples vous êtes foutu
;
#X msg 26 74 .\$1/curl.sh \$1;
#X text 74 22 getdir permet de trouver le chemin relatif au dossier
;
#X text 73 37 ici on le fait hériter à la fois pour trouver le script
curl \, et pour la variable \$1 du message qui suit;
#X connect 0 0 6 0;
#X connect 1 0 0 0;
#X connect 2 0 3 0;
#X connect 6 0 2 0;
#X connect 6 0 4 0;
#X restore 8 71 pd curlimport;
#X obj 94 217 t b b b;
#X msg 112 306 goto \$1;
#X obj 94 361 unpack s f;
#X obj 94 336 msgfile;
#X msg 140 241 read exemple_2.txt cr;
#X obj 390 71 gemhead;
#X obj 113 276 counter 1 250;
#X obj 153 211 loadbang;
#X obj 390 133 repeat 250;
#X obj 390 162 t a b b;
#X obj 390 237 separator;
#X obj 390 426 translateXYZ;
#X obj 360 468 separator;
#X obj 366 630 text3d;
#X obj 478 288 expr (($f1/10)*10)-5;
#X obj 232 402 / 60;
#X obj 428 467 separator;
#X obj 428 628 text3d;
#X obj 239 375 l2s;
#X obj 428 542 translateXYZ 0 -0.2 0;
#X obj 390 264 colorRGB 1 1 1 0;
#X obj 390 105 alpha;
#X obj 280 309 / 100;
#X obj 409 317 expr ($f1/20)*-8+4;
#X obj 478 218 counter 1 10;
#X obj 409 190 counter 1 25;
#X obj 390 348 translateXYZ 1 0 0;
#X text 358 653 rendu du prénom et du nombre d'occurence dans les
décès de l'année 2012;
#X text 531 322 incrémentation;
#X text 471 131 repeat 250;
#X text 521 189 counter pour l'incrémentation;
#X text 563 212 donc repeat + counter permet de faire l'itératio et
l'incrémentation;
#X text 90 182 lecture du fichier texte;
#X obj 163 413 s VarFloat;
#X obj 660 275 r VarFloat;
#X obj 581 260 / 100;
#X connect 2 0 5 0;
#X connect 2 1 8 0;
#X connect 3 0 5 0;
#X connect 4 0 15 0;
#X connect 4 1 20 0;
#X connect 4 1 17 0;
#X connect 4 1 24 0;
#X connect 4 1 35 0;
#X connect 5 0 4 0;
#X connect 6 0 5 0;
#X connect 7 0 23 0;
#X connect 8 0 3 0;
#X connect 9 0 6 0;
#X connect 10 0 11 0;
#X connect 11 0 12 0;
#X connect 11 1 27 0;
#X connect 11 2 2 0;
#X connect 12 0 22 0;
#X connect 13 0 14 0;
#X connect 13 0 18 0;
#X connect 14 0 15 0;
#X connect 16 0 13 1;
#X connect 17 0 15 1;
#X connect 17 0 19 1;
#X connect 18 0 21 0;
#X connect 20 0 19 0;
#X connect 21 0 19 0;
#X connect 22 0 28 0;
#X connect 23 0 10 0;
#X connect 24 0 22 4;
#X connect 25 0 13 2;
#X connect 26 0 16 0;
#X connect 27 0 25 0;
#X connect 27 3 26 0;
#X connect 28 0 13 0;
#X connect 36 0 37 0;
