#N canvas 0 22 450 300 10;
#X obj 207 240 tof/from_ascii_code 13;
#X obj 84 73 tof/to_ascii_code;
#X obj 103 117 list split 1;
#X obj 184 115 l;
#X msg 105 162 44;
#X msg 136 161 59;
#X obj 105 212 list append;
#X obj 184 212 l;
#X obj 210 212 l;
#X msg 175 164 13;
#X obj 86 94 t b l b b;
#X obj 104 141 route 35 33;
#X obj 84 47 inlet;
#X obj 206 269 outlet;
#X text 129 16 ce module permet d'utiliser les virgules;
#X connect 0 0 13 0;
#X connect 1 0 10 0;
#X connect 2 0 11 0;
#X connect 2 1 3 0;
#X connect 3 0 2 0;
#X connect 4 0 6 0;
#X connect 5 0 6 0;
#X connect 6 0 7 0;
#X connect 6 0 8 1;
#X connect 7 0 6 1;
#X connect 8 0 0 0;
#X connect 9 0 6 0;
#X connect 10 0 8 0;
#X connect 10 1 2 0;
#X connect 10 2 9 0;
#X connect 10 3 6 1;
#X connect 11 0 4 0;
#X connect 11 1 5 0;
#X connect 11 2 6 0;
#X connect 12 0 1 0;
