#N canvas 721 492 450 300 10;
#X obj 44 64 gemwin;
#X msg 40 10 create \, 1;
#X obj 190 104 gemhead;
#X obj 209 198 text3d;
#X obj 292 105 msgfile;
#X msg 318 38 read zone_1.txt;
#X msg 234 22 goto \$1;
#X floatatom 235 4 5 0 0 0 - - -;
#X obj 236 62 t b a;
#X msg 105 163 font epgyosho.ttf;
#X connect 1 0 0 0;
#X connect 2 0 3 0;
#X connect 4 0 3 0;
#X connect 5 0 4 0;
#X connect 6 0 8 0;
#X connect 7 0 6 0;
#X connect 8 0 4 0;
#X connect 8 1 4 0;
#X connect 9 0 3 0;
