#N canvas 491 41 892 852 10;
#X declare -lib moocow;
#X declare -lib list-abs;
#X declare -lib mrpeach;
#X declare -lib zexy;
#X declare -lib moocow;
#X obj -99 -167 gemwin;
#X msg -99 -190 dimen \$1 \$2 \, FSAA 4 \, frame 25 \, create \, 1
;
#X msg -99 -229 800 600;
#X obj -43 -212 s sizeWin;
#X msg -155 -184 destroy;
#X text 260 -243 interprétation graphique des données du tremblement
de terre;
#X text -103 -147 gemwin >>> permet de créer la fenêtre (WIN) de
graphique environnement multimedia (GEM);
#X text 23 -213 envoi de width et height de la fenêtre;
#X obj -128 -29 http_parse;
#X obj -37 -29 graphisme3 sphere;
#X obj -131 -229 bng 15 250 50 0 empty empty empty 17 7 0 10 -262144
-1 -1;
#X msg 320 -160 http://ichart.finance.yahoo.com/table.csv?s=BNP.PA&a=00&b=3&c=1970&d=03&e=19&f=2013&g=m&ignore=.csv
;
#X msg 321 -104 http://www.insee.fr/fr/bases-de-donnees/bsweb/serie.asp?idbank=000641333
;
#X text 316 -178 cours BNP;
#X text 317 -127 indice de valeurs INSEE;
#X connect 1 0 0 0;
#X connect 2 0 1 0;
#X connect 2 0 3 0;
#X connect 4 0 0 0;
#X connect 10 0 2 0;
