#N canvas 772 33 1282 763 10;
#X obj 350 -191 gemhead;
#X obj 350 104 separator;
#X obj 350 259 translateXYZ;
#X obj 443 196 expr (($f1/$f2)*8)-4;
#X obj 512 242 expr (($f1/$f2)*-8)+4;
#X obj 560 -195 r sizeWin;
#X obj 560 -173 unpack f f;
#X obj 350 -129 repeat 200;
#X obj 446 -79 counter 0 19;
#X obj 512 -45 counter 0 9;
#X obj 560 -149 / 50;
#X obj 617 -150 / 50;
#X obj 217 -35 tabread magnetude;
#X obj 227 -79 counter 199;
#X obj 477 276 separator;
#X obj 350 288 separator;
#X obj 477 375 colorRGB 1 0 0 1;
#X obj 500 354 / 10;
#X obj 349 435 text3d;
#X obj 349 313 colorRGB 1 1 1 1;
#X msg 254 418 text \$1;
#X obj 527 403 / 20;
#X obj 350 145 translateXYZ -0.5 -1 0;
#X obj 349 339 translateXYZ 0 0 0.01;
#X text 246 -214 interprétation graphique des données du tremblement
de terre;
#X obj 350 -96 t a b b;
#X obj 217 -11 s VarTabMagnetude;
#X obj 254 372 r VarTabMagnetude;
#X obj 254 395 t a a;
#X obj 500 306 r VarTabMagnetude;
#X obj 500 327 t a a;
#X text 660 -171 nous recevons la grandeur en width et height de l'écran
;
#X text 666 -143 nous la divisons par 50;
#X text 599 182 l'expression ici permet de définir l'écart entre
chaque zone ici en X il y en aura 19;
#X text 537 -80 les compteurs permettent de compter en boucle et ceci
infiniment;
#X text 665 233 l'expression ici permet de définir l'écart entre
chaque zone ici en X il y en aura 9;
#X text 425 -127 le repeat permet de répéter le flux dans chaque
frame => ici 200 fois;
#X text 417 89 pour éviter qu'il y ait du désordre dans la répétition
: le separator permet d'empêcher que des informations d'une itération
affecte une autre itération;
#X text 620 302 on reçoit ici les données de la magnétude;
#X text 548 348 on fait la variation de la couleur rouge avec;
#X text 569 402 on fait la taille du square;
#X text 73 352 on reçoit ici les données de la magnétude;
#X text 65 436 on récupère la valeur comme un texte et;
#X text 64 450 la taille du texte;
#X obj 108 151 hradio 20 1 0 2 empty empty empty 0 -8 0 10 -262144
-1 -1 0;
#X obj 118 195 == 1;
#X obj 158 201 == 0;
#X obj 383 -69 spigot;
#X obj 190 -59 t a a;
#X obj 54 4 sin;
#X obj 94 7 cos;
#X obj 67 -52 *;
#X obj 103 48 *;
#X obj 45 49 *;
#X floatatom 164 119 5 0 0 0 - - -;
#X floatatom 164 150 5 0 0 0 - - -;
#X obj 59 -148 counter 0 19;
#X obj 129 -98 counter 0 9;
#X obj 136 -65 / 2;
#X obj 266 -121 spigot;
#X obj 476 471 square 0.2;
#X obj 896 -136 loadbang;
#X obj 208 103 vradio 15 1 0 5 empty empty empty 0 -8 0 10 -262144
-1 -1 1;
#X text 227 101 square;
#X text 227 117 circle;
#X text 230 133 cube;
#X obj 251 235 == 1;
#X obj 220 235 == 0;
#X obj 284 234 == 2;
#X obj 478 436 spigot;
#X obj 616 437 / 20;
#X obj 567 470 spigot;
#X obj 565 505 circle 0.2 30;
#X obj 725 430 / 20;
#X obj 676 463 spigot;
#X obj 674 498 cube 0.1;
#X text 231 147 triangle;
#X obj 820 429 / 20;
#X obj 771 462 spigot;
#X obj 769 497 triangle 0.1;
#X obj 317 235 == 3;
#X obj 142 119 tgl 15 0 empty empty empty 17 7 0 10 -262144 -1 -1 0
1;
#X obj 45 293 f;
#X obj 77 291 + 1;
#X obj 106 328 line;
#X obj 46 241 metro 3000;
#X msg 45 328 \$1 3000;
#X connect 0 0 7 0;
#X connect 1 0 22 0;
#X connect 2 0 14 0;
#X connect 2 0 15 0;
#X connect 3 0 2 1;
#X connect 4 0 2 2;
#X connect 5 0 6 0;
#X connect 6 0 10 0;
#X connect 6 1 11 0;
#X connect 7 0 25 0;
#X connect 8 0 3 0;
#X connect 8 3 9 0;
#X connect 9 0 4 0;
#X connect 10 0 3 1;
#X connect 11 0 4 1;
#X connect 12 0 26 0;
#X connect 13 0 48 0;
#X connect 14 0 16 0;
#X connect 15 0 19 0;
#X connect 16 0 69 0;
#X connect 16 0 71 0;
#X connect 16 0 74 0;
#X connect 16 0 78 0;
#X connect 17 0 16 1;
#X connect 19 0 23 0;
#X connect 20 0 18 0;
#X connect 21 0 60 1;
#X connect 22 0 2 0;
#X connect 23 0 18 0;
#X connect 25 0 1 0;
#X connect 25 2 13 0;
#X connect 25 2 47 0;
#X connect 25 2 59 0;
#X connect 27 0 28 0;
#X connect 28 0 20 0;
#X connect 28 1 18 1;
#X connect 29 0 30 0;
#X connect 30 0 17 0;
#X connect 30 1 21 0;
#X connect 30 1 70 0;
#X connect 30 1 73 0;
#X connect 30 1 77 0;
#X connect 44 0 45 0;
#X connect 44 0 46 0;
#X connect 45 0 47 1;
#X connect 46 0 59 1;
#X connect 47 0 8 0;
#X connect 48 1 12 0;
#X connect 49 0 53 0;
#X connect 50 0 52 0;
#X connect 51 0 49 0;
#X connect 51 0 50 0;
#X connect 52 0 2 2;
#X connect 53 0 2 1;
#X connect 54 0 51 1;
#X connect 55 0 58 1;
#X connect 56 0 51 0;
#X connect 56 3 57 0;
#X connect 57 0 58 0;
#X connect 58 0 52 1;
#X connect 58 0 53 1;
#X connect 59 0 56 0;
#X connect 62 0 67 0;
#X connect 62 0 66 0;
#X connect 62 0 68 0;
#X connect 62 0 80 0;
#X connect 66 0 71 1;
#X connect 67 0 69 1;
#X connect 68 0 74 1;
#X connect 69 0 60 0;
#X connect 70 0 72 1;
#X connect 71 0 72 0;
#X connect 73 0 75 1;
#X connect 74 0 75 0;
#X connect 77 0 79 1;
#X connect 78 0 79 0;
#X connect 80 0 78 1;
#X connect 81 0 85 0;
#X connect 82 0 83 0;
#X connect 82 0 86 0;
#X connect 83 0 82 1;
#X connect 84 0 54 0;
#X connect 85 0 82 0;
#X connect 86 0 84 0;
#X coords 0 -1 1 1 200 80 1 100 100;
