#N canvas 646 453 628 433 10;
#N canvas 657 468 659 435 enregistrer 0;
#X obj 200 306 writesf~;
#X obj 220 28 inlet;
#X obj 221 93 sel 1;
#X obj 219 135 savepanel;
#X obj 219 187 t b s;
#X msg 218 248 start;
#X msg 284 249 open \$1;
#X msg 435 239 stop;
#X obj 59 92 inlet~;
#X connect 1 0 2 0;
#X connect 2 0 3 0;
#X connect 2 1 7 0;
#X connect 3 0 4 0;
#X connect 4 0 5 0;
#X connect 4 1 6 0;
#X connect 5 0 0 0;
#X connect 6 0 0 0;
#X connect 7 0 0 0;
#X connect 8 0 0 0;
#X restore 122 259 pd enregistrer;
#X obj 74 7 vsl 15 128 100 1000 0 0 empty empty empty 0 -9 0 10 -262144
-1 -1 0 1;
#X obj 237 202 tgl 15 0 empty empty empty 17 7 0 10 -262144 -1 -1 0
1;
#X obj 238 130 dac~;
#X obj 228 49 osc~;
#X floatatom 145 7 5 0 0 0 - - -;
#X obj 343 18 pddp/dsp;
#X text 261 200 clic pour enregistrer;
#X connect 1 0 5 0;
#X connect 2 0 0 1;
#X connect 4 0 3 0;
#X connect 4 0 3 1;
#X connect 4 0 0 0;
#X connect 5 0 4 0;
