#N canvas 246 24 583 484 10;
#X obj 228 -106 metro;
#X obj 84 -149 tgl 15 0 empty empty empty 17 7 0 10 -262144 -1 -1 0
1;
#X obj 229 -62 bng 15 250 50 0 empty empty empty 17 7 0 10 -262144
-1 -1;
#X obj 456 208 gemwin;
#X msg 456 98 create;
#X msg 474 148 dimen 600 600;
#X msg 431 57 destroy;
#X obj 302 28 vsl 15 128 0 1 0 0 empty empty empty 0 -9 0 10 -4160
-1 -1 7874 1;
#X obj 259 27 vsl 15 128 0 1 0 0 empty empty empty 0 -9 0 10 -4034
-1 -1 9017 1;
#X obj 206 28 vsl 15 128 0 1 0 0 empty empty empty 0 -9 0 10 -258113
-1 -1 5334 1;
#X msg 397 16 color \$1 0 0;
#X obj 120 150 gemhead;
#X floatatom 206 166 3 0 1 0 - - -;
#X floatatom 256 168 3 0 1 0 - - -;
#X floatatom 300 170 3 0 1 0 - - -;
#X obj 52 67 tgl 17 0 empty Objects_4-head empty 0 -6 0 8 -262144 -1
-1 0 1;
#X obj 405 126 tgl 15 0 empty empty empty 17 7 0 10 -262144 -1 -1 1
1;
#X obj 222 271 square 2;
#X obj 222 214 colorRGB 0 1 1;
#X floatatom 329 171 3 0 1 0 - - -;
#X obj 190 -162 hsl 128 15 0 2000 0 0 empty empty empty -2 -8 0 10
-262144 -1 -1 12700 1;
#X obj 157 -29 random 100;
#X obj 204 0 / 100;
#X obj 258 -1 / 100;
#X obj 301 -3 / 100;
#X obj 230 -28 random 100;
#X obj 302 -28 random 100;
#X obj 329 30 vsl 15 128 0 1 0 0 empty empty empty 0 -9 0 10 -262144
-1 -1 12700 1;
#X obj 223 241 alpha;
#X connect 0 0 2 0;
#X connect 0 0 21 0;
#X connect 0 0 26 0;
#X connect 1 0 0 0;
#X connect 2 0 25 0;
#X connect 4 0 3 0;
#X connect 5 0 3 0;
#X connect 6 0 3 0;
#X connect 7 0 14 0;
#X connect 8 0 13 0;
#X connect 9 0 12 0;
#X connect 10 0 3 0;
#X connect 11 0 18 0;
#X connect 12 0 18 1;
#X connect 13 0 18 2;
#X connect 14 0 18 3;
#X connect 15 0 11 0;
#X connect 16 0 3 0;
#X connect 18 0 28 0;
#X connect 19 0 18 4;
#X connect 20 0 0 1;
#X connect 21 0 22 0;
#X connect 22 0 9 0;
#X connect 23 0 8 0;
#X connect 24 0 7 0;
#X connect 25 0 23 0;
#X connect 26 0 24 0;
#X connect 27 0 19 0;
#X connect 28 0 17 0;
