#N canvas 621 43 695 506 12;
#X obj 231 286 osc~;
#X obj 235 357 dac~;
#X obj 59 41 pddp/dsp;
#X text 277 284 oscillateur cosinusoïdal;
#X floatatom 230 221 5 0 0 0 - - -;
#X obj 175 145 hsl 128 15 100 1000 0 0 empty empty empty -2 -8 0 10
-262144 -1 -1 0 1;
#X text 322 142 vslider. Valeurs : 100 - 1000;
#X text 281 222 objet number;
#X text 279 356 sortie audio dac = digital-to-analog converter;
#X text 56 59 objet : pddp/dsp audio On et Off;
#X connect 0 0 1 0;
#X connect 0 0 1 1;
#X connect 4 0 0 0;
#X connect 5 0 4 0;
